<?xml version="1.0" encoding="UTF-8"?>
<svg xmlns="http://www.w3.org/2000/svg" xmlns:xlink="http://www.w3.org/1999/xlink" width="574pt" height="489pt" viewBox="673 230 574 489">
<defs>
<clipPath id="clip-0">
<path clip-rule="nonzero" d="M 794 415 L 996 415 L 996 617 L 794 617 Z M 794 415 "/>
</clipPath>
<clipPath id="clip-1">
<path clip-rule="nonzero" d="M 995.355469 414.058594 L 1046.265625 464.96875 L 843.746094 667.488281 L 792.835938 616.578125 Z M 995.355469 414.058594 "/>
</clipPath>
</defs>
<path fill-rule="nonzero" fill="rgb(56.471252%, 54.902649%, 77.255249%)" fill-opacity="1" d="M 1245.84375 546.046875 L 961.4375 546.046875 L 1031.4375 616.046875 L 1176.1875 616.046875 L 1245.84375 546.390625 Z M 1245.84375 546.046875 "/>
<path fill-rule="nonzero" fill="rgb(64.31427%, 60.784912%, 81.568909%)" fill-opacity="1" d="M 924.316406 433.488281 L 924.316406 647.582031 L 994.753906 718.019531 L 994.753906 433.488281 Z M 924.316406 433.488281 "/>
<path fill-rule="nonzero" fill="rgb(65.098572%, 61.177063%, 81.568909%)" fill-opacity="1" d="M 1175.988281 331.253906 L 1175.988281 615.660156 L 1245.988281 545.660156 L 1245.988281 400.910156 L 1176.332031 331.253906 Z M 1175.988281 331.253906 "/>
<path fill-rule="nonzero" fill="rgb(68.235779%, 65.882874%, 82.745361%)" fill-opacity="1" d="M 961.4375 401.65625 L 1245.84375 401.65625 L 1175.84375 331.65625 L 1031.09375 331.65625 L 961.4375 401.3125 Z M 961.4375 401.65625 "/>
<path fill-rule="nonzero" fill="rgb(72.941589%, 66.667175%, 87.451172%)" fill-opacity="1" d="M 924.644531 532.90625 L 1125.75 331.800781 L 1026.757812 331.800781 L 924.402344 434.15625 L 924.402344 532.664062 Z M 924.644531 532.90625 "/>
<path fill-rule="nonzero" fill="rgb(72.941589%, 66.667175%, 87.451172%)" fill-opacity="1" d="M 994.652344 480.222656 L 994.652344 579.222656 L 1031.59375 616.160156 L 1130.09375 616.160156 L 1130.34375 615.910156 Z M 994.652344 480.222656 "/>
<path fill-rule="nonzero" fill="rgb(38.822937%, 36.077881%, 53.726196%)" fill-opacity="1" d="M 994.527344 464.128906 L 924.652344 534.003906 L 994.527344 487.410156 Z M 994.527344 464.128906 "/>
<path fill-rule="nonzero" fill="rgb(38.822937%, 36.077881%, 53.726196%)" fill-opacity="1" d="M 1056.515625 401.59375 L 1126.390625 331.71875 L 1079.796875 401.59375 Z M 1056.515625 401.59375 "/>
<path fill-rule="nonzero" fill="rgb(38.822937%, 36.077881%, 53.726196%)" fill-opacity="1" d="M 1060.292969 546.109375 L 1130.167969 615.984375 L 1083.574219 546.109375 Z M 1060.292969 546.109375 "/>
<path fill-rule="nonzero" fill="rgb(38.822937%, 36.077881%, 53.726196%)" fill-opacity="1" d="M 1176.625 420.5 L 1176.625 401.730469 L 1246.179688 401.730469 Z M 1176.625 420.5 "/>
<path fill-rule="nonzero" fill="rgb(38.822937%, 36.077881%, 53.726196%)" fill-opacity="1" d="M 1157.449219 546.269531 L 1176.21875 546.269531 L 1176.21875 615.828125 Z M 1157.449219 546.269531 "/>
<path fill-rule="nonzero" fill="rgb(19.215393%, 49.01886%, 55.2948%)" fill-opacity="1" d="M 674.15625 402.332031 L 958.5625 402.332031 L 888.5625 332.332031 L 743.8125 332.332031 L 674.15625 401.988281 Z M 674.15625 402.332031 "/>
<path fill-rule="nonzero" fill="rgb(48.234558%, 78.431702%, 83.921814%)" fill-opacity="1" d="M 995.683594 514.890625 L 995.683594 300.796875 L 925.246094 230.359375 L 925.246094 514.890625 Z M 995.683594 514.890625 "/>
<path fill-rule="nonzero" fill="rgb(42.744446%, 72.941589%, 80.784607%)" fill-opacity="1" d="M 744.011719 617.125 L 744.011719 332.71875 L 674.011719 402.71875 L 674.011719 547.46875 L 743.667969 617.125 Z M 744.011719 617.125 "/>
<path fill-rule="nonzero" fill="rgb(47.058105%, 78.431702%, 82.745361%)" fill-opacity="1" d="M 958.5625 546.722656 L 674.15625 546.722656 L 744.15625 616.722656 L 888.90625 616.722656 L 958.5625 547.066406 Z M 958.5625 546.722656 "/>
<g clip-path="url(#clip-0)">
<g clip-path="url(#clip-1)">
<path fill-rule="nonzero" fill="rgb(47.842407%, 78.431702%, 83.137512%)" fill-opacity="1" d="M 995.355469 415.472656 L 794.25 616.578125 L 893.242188 616.578125 L 995.597656 514.222656 L 995.597656 415.714844 Z M 995.355469 415.472656 "/>
</g>
</g>
<path fill-rule="nonzero" fill="rgb(40.391541%, 70.980835%, 78.823853%)" fill-opacity="1" d="M 925.347656 468.15625 L 925.347656 369.15625 L 888.410156 332.21875 L 789.910156 332.21875 L 789.660156 332.46875 Z M 925.347656 468.15625 "/>
<path fill-rule="nonzero" fill="rgb(25.097656%, 50.196838%, 55.2948%)" fill-opacity="1" d="M 925.472656 484.25 L 995.347656 414.375 L 925.472656 460.96875 Z M 925.472656 484.25 "/>
<path fill-rule="nonzero" fill="rgb(23.921204%, 48.626709%, 56.471252%)" fill-opacity="1" d="M 863.484375 546.785156 L 793.609375 616.660156 L 840.203125 546.785156 Z M 863.484375 546.785156 "/>
<path fill-rule="nonzero" fill="rgb(13.725281%, 40.391541%, 48.234558%)" fill-opacity="1" d="M 859.707031 402.269531 L 789.832031 332.394531 L 836.425781 402.269531 Z M 859.707031 402.269531 "/>
<path fill-rule="nonzero" fill="rgb(18.823242%, 47.058105%, 52.941895%)" fill-opacity="1" d="M 743.375 527.878906 L 743.375 546.648438 L 673.820312 546.648438 Z M 743.375 527.878906 "/>
<path fill-rule="nonzero" fill="rgb(13.725281%, 40.391541%, 48.234558%)" fill-opacity="1" d="M 762.550781 402.109375 L 743.78125 402.109375 L 743.78125 332.554688 Z M 762.550781 402.109375 "/>
</svg>
