<svg width="1200" height="630" viewBox="0 0 1200 630" fill="none" xmlns="http://www.w3.org/2000/svg">
  <defs>
    <linearGradient id="bg" x1="74" y1="42" x2="1126" y2="588" gradientUnits="userSpaceOnUse">
      <stop stop-color="#F6FAFC"/>
      <stop offset="0.55" stop-color="#EDF3F7"/>
      <stop offset="1" stop-color="#F7FAFC"/>
    </linearGradient>
    <radialGradient id="glowA" cx="0" cy="0" r="1" gradientUnits="userSpaceOnUse" gradientTransform="translate(166 114) rotate(29) scale(330 230)">
      <stop stop-color="#7AA3D5" stop-opacity="0.28"/>
      <stop offset="1" stop-color="#7AA3D5" stop-opacity="0"/>
    </radialGradient>
    <radialGradient id="glowB" cx="0" cy="0" r="1" gradientUnits="userSpaceOnUse" gradientTransform="translate(1004 96) rotate(136) scale(286 214)">
      <stop stop-color="#D08770" stop-opacity="0.18"/>
      <stop offset="1" stop-color="#D08770" stop-opacity="0"/>
    </radialGradient>
    <pattern id="grid" width="32" height="32" patternUnits="userSpaceOnUse">
      <path d="M32 0H0V32" stroke="#245A93" stroke-opacity="0.04"/>
    </pattern>
    <filter id="shadowLg" x="503" y="76" width="684" height="404" filterUnits="userSpaceOnUse" color-interpolation-filters="sRGB">
      <feFlood flood-opacity="0" result="BackgroundImageFix"/>
      <feColorMatrix in="SourceAlpha" type="matrix" values="0 0 0 0 0 0 0 0 0 0 0 0 0 0 0 0 0 0 127 0" result="hardAlpha"/>
      <feOffset dy="26"/>
      <feGaussianBlur stdDeviation="20"/>
      <feComposite in2="hardAlpha" operator="out"/>
      <feColorMatrix type="matrix" values="0 0 0 0 0.0313726 0 0 0 0 0.0666667 0 0 0 0 0.113725 0 0 0 0.28 0"/>
      <feBlend mode="normal" in2="BackgroundImageFix" result="effect1_dropShadow_1_1"/>
      <feBlend mode="normal" in="SourceGraphic" in2="effect1_dropShadow_1_1" result="shape"/>
    </filter>
    <filter id="shadowMd" x="872" y="244" width="266" height="376" filterUnits="userSpaceOnUse" color-interpolation-filters="sRGB">
      <feFlood flood-opacity="0" result="BackgroundImageFix"/>
      <feColorMatrix in="SourceAlpha" type="matrix" values="0 0 0 0 0 0 0 0 0 0 0 0 0 0 0 0 0 0 127 0" result="hardAlpha"/>
      <feOffset dy="18"/>
      <feGaussianBlur stdDeviation="16"/>
      <feComposite in2="hardAlpha" operator="out"/>
      <feColorMatrix type="matrix" values="0 0 0 0 0.0313726 0 0 0 0 0.0666667 0 0 0 0 0.113725 0 0 0 0.24 0"/>
      <feBlend mode="normal" in2="BackgroundImageFix" result="effect1_dropShadow_1_1"/>
      <feBlend mode="normal" in="SourceGraphic" in2="effect1_dropShadow_1_1" result="shape"/>
    </filter>
    <clipPath id="shotClip">
      <rect x="543" y="116" width="604" height="324" rx="28"/>
    </clipPath>
    <clipPath id="phoneClip">
      <rect x="929" y="276" width="146" height="286" rx="20"/>
    </clipPath>
  </defs>

  <rect width="1200" height="630" rx="36" fill="url(#bg)"/>
  <rect width="1200" height="630" rx="36" fill="url(#glowA)"/>
  <rect width="1200" height="630" rx="36" fill="url(#glowB)"/>
  <rect width="1200" height="630" rx="36" fill="url(#grid)"/>
  <rect x="20" y="20" width="1160" height="590" rx="32" stroke="#245A93" stroke-opacity="0.12" stroke-width="1.25"/>

  <g opacity="0.96">
    <rect x="70" y="58" width="154" height="56" rx="18" fill="white" fill-opacity="0.78" stroke="#245A93" stroke-opacity="0.12" stroke-width="1.25"/>
    <rect x="86" y="74" width="28" height="28" rx="10" fill="#245A93"/>
    <text x="100" y="94" fill="white" font-size="16" font-family="'Avenir Next', 'Helvetica Neue', Arial, sans-serif" font-weight="700" text-anchor="middle">H</text>
    <text x="130" y="94" fill="#122033" font-size="18" font-family="'Avenir Next', 'Helvetica Neue', Arial, sans-serif" font-weight="700" letter-spacing="0.08em">HAICO</text>
  </g>

  <g>
    <text x="70" y="230" fill="#122033" font-size="64" font-family="'Avenir Next', 'Helvetica Neue', Arial, sans-serif" font-weight="700">
      <tspan x="70" dy="0">Platform for</tspan>
      <tspan x="70" dy="72">human-agent</tspan>
      <tspan x="70" dy="72">collaboration.</tspan>
    </text>

    <text x="74" y="446" fill="#5A6B80" font-size="22" font-family="'Helvetica Neue', Arial, sans-serif" font-weight="500">
      <tspan x="74" dy="0">Collaborate with agents the way you</tspan>
      <tspan x="74" dy="34">collaborate with teammates.</tspan>
    </text>

    <g fill="#245A93" fill-opacity="0.95">
      <g transform="translate(74 513)">
        <path d="M3.5 1C2.11929 1 1 2.11929 1 3.5V12.5C1 13.8807 2.11929 15 3.5 15H12.5C13.8807 15 15 13.8807 15 12.5V3.5C15 2.11929 13.8807 1 12.5 1H3.5ZM14 8H10.5L10.4101 8.00806C10.1769 8.05039 10 8.25454 10 8.5C10 8.55217 9.99216 8.66189 9.96774 8.80843C9.92659 9.05536 9.85276 9.30145 9.74029 9.52639C9.43156 10.1439 8.89734 10.5 8 10.5C7.10266 10.5 6.56844 10.1439 6.25971 9.52639C6.14724 9.30145 6.07341 9.05536 6.03226 8.80843C6.00784 8.66189 6 8.55217 6 8.5C6 8.22386 5.77614 8 5.5 8H2V3.5C2 2.67157 2.67157 2 3.5 2H12.5C13.3284 2 14 2.67157 14 3.5V8ZM2 9H5.044L5.0794 9.17401C5.1363 9.42568 5.22762 9.69828 5.36529 9.97361C5.83781 10.9186 6.70984 11.5 8 11.5C9.29016 11.5 10.1622 10.9186 10.6347 9.97361L10.7295 9.76791C10.8159 9.56329 10.8779 9.36276 10.9206 9.17401L10.955 9H14V12.5C14 13.3284 13.3284 14 12.5 14H3.5C2.67157 14 2 13.3284 2 12.5V9Z"/>
        <text x="23" y="14" font-size="18" font-family="'IBM Plex Mono', 'SFMono-Regular', Menlo, monospace" font-weight="500">INBOX</text>
      </g>
      <g transform="translate(166 513)">
        <path d="M9 8C9 8.55228 8.55228 9 8 9C7.44772 9 7 8.55228 7 8C7 7.44772 7.44772 7 8 7C8.55228 7 9 7.44772 9 8Z"/>
        <path d="M1 8C1 11.859 4.14 15 8 15C11.86 15 15 11.859 15 8C15 4.141 11.86 1 8 1C4.14 1 1 4.141 1 8ZM2 8C2 4.691 4.691 2 8 2C11.309 2 14 4.691 14 8C14 11.309 11.309 14 8 14C4.691 14 2 11.309 2 8Z"/>
        <text x="23" y="14" font-size="18" font-family="'IBM Plex Mono', 'SFMono-Regular', Menlo, monospace" font-weight="500">ISSUES</text>
      </g>
      <g transform="translate(268 513)">
        <path d="M12.354 3.646C12.159 3.451 11.842 3.451 11.647 3.646L6.70798 8.585L7.41498 9.292L12.354 4.353C12.549 4.158 12.549 3.841 12.354 3.646ZM1.85398 8.146C1.65898 7.951 1.34198 7.951 1.14698 8.146C0.951982 8.341 0.951982 8.658 1.14698 8.853L4.14698 11.853C4.24498 11.951 4.37298 11.999 4.50098 11.999C4.62898 11.999 4.75698 11.95 4.85498 11.853L5.20898 11.499L4.50198 10.792L1.85598 8.146H1.85398ZM7.49998 12C7.37198 12 7.24398 11.951 7.14598 11.854L4.14598 8.854C3.95098 8.659 3.95098 8.342 4.14598 8.147C4.34098 7.952 4.65798 7.952 4.85298 8.147L7.49898 10.793L14.645 3.647C14.84 3.452 15.157 3.452 15.352 3.647C15.547 3.842 15.547 4.159 15.352 4.354L7.85198 11.854C7.75398 11.952 7.62598 12 7.49798 12H7.49998Z"/>
        <text x="23" y="14" font-size="18" font-family="'IBM Plex Mono', 'SFMono-Regular', Menlo, monospace" font-weight="500">APPROVALS</text>
      </g>
      <g transform="translate(400 513)">
        <path d="M12.25 15L13.75 15C14.439 15 15 14.439 15 13.75L15 2.25C15 1.561 14.439 1 13.75 1L12.25 1C11.561 1 11 1.561 11 2.25L11 13.75C11 14.439 11.561 15 12.25 15ZM12 2.25C12 2.112 12.112 2 12.25 2L13.75 2C13.888 2 14 2.112 14 2.25L14 13.75C14 13.888 13.888 14 13.75 14L12.25 14C12.112 14 12 13.888 12 13.75L12 2.25Z"/>
        <path d="M8.75 15L7.25 15C6.561 15 6 14.439 6 13.75L6 6.25C6 5.561 6.561 5 7.25 5L8.75 5C9.439 5 10 5.561 10 6.25L10 13.75C10 14.439 9.439 15 8.75 15ZM7.25 6C7.112 6 7 6.112 7 6.25L7 13.75C7 13.888 7.112 14 7.25 14L8.75 14C8.888 14 9 13.888 9 13.75L9 6.25C9 6.112 8.888 6 8.75 6L7.25 6Z"/>
        <path d="M3.75 15L2.25 15C1.561 15 1 14.439 1 13.75L1 8.25C1 7.561 1.561 7 2.25 7L3.75 7C4.439 7 5 7.561 5 8.25L5 13.75C5 14.439 4.439 15 3.75 15ZM2.25 8C2.112 8 2 8.112 2 8.25L2 13.75C2 13.888 2.112 14 2.25 14L3.75 14C3.888 14 4 13.888 4 13.75L4 8.25C4 8.112 3.888 8 3.75 8L2.25 8Z"/>
        <text x="23" y="14" font-size="18" font-family="'IBM Plex Mono', 'SFMono-Regular', Menlo, monospace" font-weight="500">LIVE OPS</text>
      </g>
    </g>
  </g>

  <g filter="url(#shadowLg)">
    <rect x="543" y="116" width="604" height="324" rx="28" fill="#F6FAFC" stroke="#F8FBFF" stroke-opacity="0.9" stroke-width="1.25"/>
    <g clip-path="url(#shotClip)">
      <image href="haico-global-inbox-nord-light.png" x="543" y="116" width="604" height="347" preserveAspectRatio="xMidYMid meet"/>
    </g>
  </g>

  <g filter="url(#shadowMd)">
    <rect x="925" y="272" width="154" height="294" rx="26" fill="#2A3A4C" stroke="#5E7186" stroke-opacity="0.24" stroke-width="1"/>
    <rect x="926" y="273" width="152" height="292" rx="24" fill="#32475D"/>
    <g clip-path="url(#phoneClip)">
      <image href="haico-mobile-inbox-real.jpg" x="929" y="276" width="146" height="286" preserveAspectRatio="xMidYMid slice"/>
    </g>
    <rect x="978" y="283" width="48" height="6" rx="3" fill="#223446"/>
    <rect x="987" y="553" width="30" height="2" rx="1" fill="white" fill-opacity="0.18"/>
  </g>

  <text x="1128" y="94" fill="#122033" fill-opacity="0.88" font-size="18" font-family="'Helvetica Neue', Arial, sans-serif" font-weight="700" text-anchor="end">haico.dev</text>
</svg>
